<?xml version="1.0" encoding="UTF-8" standalone="no"?>
<!-- Created with Inkscape (http://www.inkscape.org/) -->

<svg
   xmlns:osb="http://www.openswatchbook.org/uri/2009/osb"
   xmlns:dc="http://purl.org/dc/elements/1.1/"
   xmlns:cc="http://creativecommons.org/ns#"
   xmlns:rdf="http://www.w3.org/1999/02/22-rdf-syntax-ns#"
   xmlns:svg="http://www.w3.org/2000/svg"
   xmlns="http://www.w3.org/2000/svg"
   xmlns:sodipodi="http://sodipodi.sourceforge.net/DTD/sodipodi-0.dtd"
   xmlns:inkscape="http://www.inkscape.org/namespaces/inkscape"
   id="svg2"
   height="16"
   width="16"
   version="1.0"
   sodipodi:docname="mate-16.svg"
   inkscape:version="0.92.4 (unknown)"
   enable-background="new">
  <defs
     id="defs14">
    <linearGradient
       id="linearGradient1009"
       osb:paint="solid">
      <stop
         style="stop-color:#ffffff;stop-opacity:1;"
         offset="0"
         id="stop1007" />
    </linearGradient>
  </defs>
  <sodipodi:namedview
     pagecolor="#ffffff"
     bordercolor="#666666"
     borderopacity="1"
     objecttolerance="10"
     gridtolerance="10"
     guidetolerance="10"
     inkscape:pageopacity="0"
     inkscape:pageshadow="2"
     inkscape:window-width="1680"
     inkscape:window-height="974"
     id="namedview12"
     showgrid="false"
     inkscape:pagecheckerboard="true"
     borderlayer="false"
     inkscape:zoom="47.1875"
     inkscape:cx="4.8"
     inkscape:cy="8"
     inkscape:window-x="0"
     inkscape:window-y="25"
     inkscape:window-maximized="1"
     inkscape:current-layer="svg2" />
  <metadata
     id="metadata7">
    <rdf:RDF>
      <cc:Work
         rdf:about="">
        <dc:format>image/svgxml</dc:format>
        <dc:type
           rdf:resource="http://purl.org/dc/dcmitype/StillImage" />
        <dc:title></dc:title>
      </cc:Work>
    </rdf:RDF>
  </metadata>
  <g
     id="layer2"
     display="none"
     transform="translate(0,-6)">
    <rect
       id="rect4898"
       fill-rule="nonzero"
       height="22"
       width="22"
       y="0"
       x="0"
       fill="#333" />
  </g>
  <g
     id="layer3"
     display="none"
     transform="translate(0,-6)">
    <rect
       id="rect4126"
       fill-rule="nonzero"
       height="22"
       width="22"
       y="0"
       x="0"
       fill="#efebe7" />
  </g>
  <path
     style="opacity:1;fill:#ffffff;fill-opacity:1;stroke:none;stroke-width:0;stroke-linecap:round;stroke-miterlimit:4;stroke-dasharray:none;stroke-opacity:1;paint-order:stroke markers fill"
     d="m 1.0823678,4.1308808 c -0.052414,0.208433 -0.0088,0.433678 -0.023091,0.648785 0,2.285329 0,4.570659 0,6.8559892 0.022686,0.153219 0.1926763,0.08296 0.2713365,0.01787 C 3.4588424,10.44036 5.5862954,9.2257508 7.7074494,8.0002928 7.8220313,7.9048628 7.6862604,7.7981068 7.5925339,7.7625548 5.4676073,6.5389538 3.3397452,5.3204508 1.2085509,4.1077908 c -0.051966,-0.01733 -0.083482,-0.0108 -0.1261831,0.02309 z"
     id="path3152"
     inkscape:connector-curvature="0" />
  <path
     style="opacity:1;fill:#ffffff;fill-opacity:1;stroke:none;stroke-width:0;stroke-linecap:round;stroke-miterlimit:4;stroke-dasharray:none;stroke-opacity:1;paint-order:stroke markers fill"
     d="M 7.8924608,1.0811031 C 6.9581243,1.0634347 6.0319672,1.3009065 5.1817477,1.6775457 4.2134602,2.1157701 3.3225813,2.7516065 2.6527823,3.5822454 2.5700123,3.7419064 2.8036682,3.7851041 2.896647,3.8582204 3.0448596,3.9292405 3.174801,4.0504205 3.3362843,4.0850195 3.507549,3.9638931 3.6243904,3.7746057 3.7853296,3.6369126 4.7689101,2.6867181 6.0824942,2.1026865 7.4404374,1.9667102 8.1273581,1.9185076 8.841308,1.9460712 9.5083392,2.1403004 c 1.8387128,0.481319 3.4017118,1.8853844 4.1131038,3.6422753 0.636766,1.5392781 0.561932,3.336791 -0.17547,4.8325743 -0.747278,1.502845 -2.113056,2.691184 -3.7178397,3.181603 -0.5865419,0.185265 -1.2092287,0.27493 -1.8221281,0.254895 -0.7103536,0.0021 -1.434387,-0.170782 -2.095529,-0.434209 C 5.0453448,13.284726 4.3142959,12.865747 3.7287214,12.269601 3.5688409,12.124825 3.4316713,11.947007 3.2579032,11.821218 3.121898,11.804106 3.0082038,11.941216 2.883608,11.990046 c -0.1054658,0.08362 -0.2839729,0.11118 -0.3360827,0.240127 0.011684,0.136552 0.1628089,0.21823 0.2366212,0.327962 1.1555234,1.250355 2.7510988,2.094635 4.4387239,2.329226 0.5211641,0.06081 1.0507041,0.05067 1.5723348,4.37e-4 C 10.413467,14.69716 11.943391,13.901288 13.05017,12.708709 14.444726,11.251874 15.149341,9.1558348 14.886371,7.1528157 14.624187,5.024682 13.295476,3.078784 11.446434,2.0064655 10.5888,1.5062903 9.6220288,1.1836831 8.6322636,1.0942929 8.3859987,1.0792621 8.1390672,1.0810418 7.8924608,1.0811031 Z"
     id="path3154"
     inkscape:connector-curvature="0" />
  <path
     style="opacity:1;fill:#ffffff;fill-opacity:1;stroke:none;stroke-width:0;stroke-linecap:round;stroke-miterlimit:4;stroke-dasharray:none;stroke-opacity:1;paint-order:stroke markers fill"
     d="M 7.8761015,4.0713936 C 7.0645259,4.0644391 6.2313309,4.3023932 5.6088938,4.8381434 5.4986049,4.9377905 5.3630686,5.0269209 5.2995676,5.1642053 5.3295154,5.3106527 5.5195075,5.3279699 5.6218509,5.4136084 5.7656759,5.4713592 5.899925,5.6284354 6.0664165,5.591751 6.3333495,5.3939991 6.60049,5.1727887 6.9233746,5.0793159 7.3964175,4.9051264 7.9062154,4.9664126 8.4015992,4.9627937 c 0.6850634,0.059218 1.3540841,0.3627433 1.8288998,0.8645562 0.48899,0.4824147 0.750357,1.1490582 0.808176,1.8185787 0.10575,0.9881451 -0.213236,2.0567477 -0.992391,2.7058714 -0.5770502,0.500133 -1.3535233,0.725832 -2.1095989,0.701461 -0.6250847,0.0048 -1.2672967,-0.155272 -1.7547938,-0.56605 -0.1135232,-0.06925 -0.2187689,-0.271764 -0.3664479,-0.172857 -0.1951521,0.122494 -0.4147869,0.215544 -0.5945684,0.356514 -0.070666,0.130105 0.1156188,0.21614 0.1896038,0.300648 0.5799891,0.531588 1.3317018,0.863731 2.1142026,0.940836 0.9304342,0.08926 1.9062596,-0.0893 2.6999836,-0.598016 0.863314,-0.540641 1.440278,-1.4670798 1.635036,-2.4582654 0.09335,-0.4539595 0.06311,-0.9224593 0.04969,-1.3825065 C 11.791428,6.350136 11.171919,5.2679022 10.200536,4.6714706 9.5100846,4.2397429 8.6878404,4.0380754 7.8761015,4.0713936 Z"
     id="path3156"
     inkscape:connector-curvature="0" />
</svg>
