<?xml version="1.0" encoding="UTF-8" standalone="no"?>
<svg
   xmlns:dc="http://purl.org/dc/elements/1.1/"
   xmlns:cc="http://creativecommons.org/ns#"
   xmlns:rdf="http://www.w3.org/1999/02/22-rdf-syntax-ns#"
   xmlns:svg="http://www.w3.org/2000/svg"
   xmlns="http://www.w3.org/2000/svg"
   xmlns:xlink="http://www.w3.org/1999/xlink"
   version="1.1"
   id="svg2"
   height="19"
   width="19">
  <defs
     id="defs4">
    <linearGradient
       id="linearGradient3777">
      <stop
         style="stop-color:#000000;stop-opacity:0.22745098;"
         offset="0"
         id="stop3779" />
      <stop
         style="stop-color:#000000;stop-opacity:0;"
         offset="1"
         id="stop3781" />
    </linearGradient>
    <linearGradient
       id="linearGradient3767">
      <stop
         id="stop3769"
         offset="0"
         style="stop-color:#ffffff;stop-opacity:1;" />
      <stop
         id="stop3771"
         offset="1"
         style="stop-color:#e8e8e8;stop-opacity:1;" />
    </linearGradient>
    <linearGradient
       id="linearGradient3757">
      <stop
         id="stop3759"
         offset="0"
         style="stop-color:#bebebe;stop-opacity:1;" />
      <stop
         id="stop3761"
         offset="1"
         style="stop-color:#e6e6e6;stop-opacity:1;" />
    </linearGradient>
    <linearGradient
       gradientUnits="userSpaceOnUse"
       y2="19"
       x2="13"
       y1="4"
       x1="13"
       id="linearGradient3763"
       xlink:href="#linearGradient3757" />
    <linearGradient
       y2="16.999987"
       x2="13.333333"
       y1="5.9999866"
       x1="13.333333"
       gradientUnits="userSpaceOnUse"
       id="linearGradient3797"
       xlink:href="#linearGradient3767" />
    <linearGradient
       y2="5.9999824"
       x2="14.470589"
       y1="16.999983"
       x1="14.470589"
       gradientUnits="userSpaceOnUse"
       id="linearGradient3801"
       xlink:href="#linearGradient3777" />
    <filter
       id="filter35"
       style="color-interpolation-filters:sRGB;">
      <feColorMatrix
         id="feColorMatrix31"
         result="color1"
         values="180"
         type="hueRotate" />
      <feColorMatrix
         id="feColorMatrix33"
         result="color2"
         values="0 0 -1 0 1 0 -1 0 0 1 -1 0 0 0 1 -0.21 -0.72 -0.07 1.8 0 " />
    </filter>
  </defs>
  <metadata
     id="metadata7">
    <rdf:RDF>
      <cc:Work
         rdf:about="">
        <dc:format>image/svg+xml</dc:format>
        <dc:type
           rdf:resource="http://purl.org/dc/dcmitype/StillImage" />
        <dc:title></dc:title>
      </cc:Work>
    </rdf:RDF>
  </metadata>
  <g
     transform="translate(-1.9999997,-1031.3622)"
     id="layer1">
    <g
       style="filter:url(#filter35)"
       id="g4041">
      <path
         style="fill:url(#linearGradient3763);fill-opacity:1;stroke:none"
         id="path2987"
         d="M 20,11.5 C 20,15.642136 16.642136,19 12.5,19 8.3578644,19 5,15.642136 5,11.5 5,7.3578644 8.3578644,4 12.5,4 16.642136,4 20,7.3578644 20,11.5 z"
         transform="matrix(1.2666667,0,0,1.2666667,-4.3333338,1026.2955)" />
      <path
         transform="matrix(1.7,0,0,1.5454545,-10.6,1023.0895)"
         d="M 18,11.5 C 18,14.537566 15.761424,17 13,17 10.238576,17 8,14.537566 8,11.5 8,8.4624339 10.238576,6 13,6 c 2.761424,0 5,2.4624339 5,5.5 z"
         id="path3775"
         style="fill:url(#linearGradient3801);fill-opacity:1;stroke:none" />
      <path
         style="fill:url(#linearGradient3797);fill-opacity:1;stroke:none"
         id="path3765"
         d="M 18,11.5 C 18,14.537566 15.761424,17 13,17 10.238576,17 8,14.537566 8,11.5 8,8.4624339 10.238576,6 13,6 c 2.761424,0 5,2.4624339 5,5.5 z"
         transform="matrix(1.5,0,0,1.3636364,-8,1025.1804)" />
      <g
         id="g3822">
        <g
           style="fill:#ffffff"
           id="g3816"
           transform="translate(-0.83999283,2.2899698)">
          <rect
             transform="matrix(0.70710677,-0.70710679,0.70710677,0.70710679,0,0)"
             y="744.13599"
             x="-727.92255"
             height="1.2369368"
             width="4.9997449"
             id="rect3818"
             style="fill:#ffffff;fill-opacity:1;stroke:none" />
          <rect
             style="fill:#ffffff;fill-opacity:1;stroke:none"
             id="rect3820"
             width="4.9997449"
             height="1.2369368"
             x="-745.37366"
             y="726.68433"
             transform="matrix(-0.70710677,-0.70710679,-0.70710677,0.70710679,0,0)" />
        </g>
        <g
           transform="translate(-0.83999283,1.290164)"
           id="g3044">
          <rect
             style="fill:#4d4d4d;fill-opacity:1;stroke:none"
             id="rect3040"
             width="4.9997449"
             height="1.2369368"
             x="-727.92255"
             y="744.13599"
             transform="matrix(0.70710677,-0.70710679,0.70710677,0.70710679,0,0)" />
          <rect
             transform="matrix(-0.70710677,-0.70710679,-0.70710677,0.70710679,0,0)"
             y="726.68433"
             x="-745.37366"
             height="1.2369368"
             width="4.9997449"
             id="rect3042"
             style="fill:#4d4d4d;fill-opacity:1;stroke:none" />
        </g>
      </g>
    </g>
  </g>
</svg>
