<?xml version="1.0" encoding="UTF-8"?>
<svg xmlns="http://www.w3.org/2000/svg" xmlns:xlink="http://www.w3.org/1999/xlink" width="38px" height="38px" viewBox="0 0 38 38" version="1.1">
<g id="surface1">
<path style=" stroke:none;fill-rule:nonzero;fill:rgb(70.19608%,70.19608%,70.19608%);fill-opacity:1;" d="M 36 19 C 36 28.390625 28.390625 36 19 36 C 9.609375 36 2 28.390625 2 19 C 2 9.609375 9.609375 2 19 2 C 28.390625 2 36 9.609375 36 19 Z M 36 19 "/>
<path style=" stroke:none;fill-rule:nonzero;fill:rgb(94.901961%,94.901961%,94.901961%);fill-opacity:1;" d="M 34 19 C 34 27.285156 27.285156 34 19 34 C 10.714844 34 4 27.285156 4 19 C 4 10.714844 10.714844 4 19 4 C 27.285156 4 34 10.714844 34 19 Z M 34 19 "/>
<path style=" stroke:none;fill-rule:nonzero;fill:rgb(40.000001%,40.000001%,40.000001%);fill-opacity:1;" d="M 17.25 21.660156 L 24.320312 14.589844 L 26.070312 16.339844 L 19 23.410156 Z M 17.25 21.660156 "/>
<path style=" stroke:none;fill-rule:nonzero;fill:rgb(40.000001%,40.000001%,40.000001%);fill-opacity:1;" d="M 20.75 21.660156 L 13.679688 14.589844 L 11.929688 16.339844 L 19 23.410156 Z M 20.75 21.660156 "/>
</g>
</svg>
