<?xml version="1.0" encoding="UTF-8" standalone="no"?>
<!-- Created with Inkscape (http://www.inkscape.org/) -->

<svg
   xmlns:dc="http://purl.org/dc/elements/1.1/"
   xmlns:cc="http://creativecommons.org/ns#"
   xmlns:rdf="http://www.w3.org/1999/02/22-rdf-syntax-ns#"
   xmlns:svg="http://www.w3.org/2000/svg"
   xmlns="http://www.w3.org/2000/svg"
   xmlns:xlink="http://www.w3.org/1999/xlink"
   xmlns:sodipodi="http://sodipodi.sourceforge.net/DTD/sodipodi-0.dtd"
   xmlns:inkscape="http://www.inkscape.org/namespaces/inkscape"
   width="70"
   height="48"
   id="svg11252"
   version="1.1"
   inkscape:version="0.48.3.1 r9886"
   sodipodi:docname="four.svg">
  <metadata
     id="metadata19">
    <rdf:RDF>
      <cc:Work
         rdf:about="">
        <dc:format>image/svg+xml</dc:format>
        <dc:type
           rdf:resource="http://purl.org/dc/dcmitype/StillImage" />
        <dc:title />
      </cc:Work>
    </rdf:RDF>
  </metadata>
  <sodipodi:namedview
     pagecolor="#ffffff"
     bordercolor="#666666"
     borderopacity="0.21960784"
     objecttolerance="10"
     gridtolerance="10"
     guidetolerance="10"
     inkscape:pageopacity="0"
     inkscape:pageshadow="2"
     inkscape:window-width="919"
     inkscape:window-height="585"
     id="namedview17"
     showgrid="true"
     fit-margin-top="0"
     fit-margin-left="0"
     fit-margin-right="0"
     fit-margin-bottom="0"
     showborder="true"
     inkscape:showpageshadow="false"
     inkscape:zoom="4.0000001"
     inkscape:cx="-2.1637104"
     inkscape:cy="40.000232"
     inkscape:window-x="388"
     inkscape:window-y="395"
     inkscape:window-maximized="0"
     inkscape:current-layer="svg11252"
     inkscape:snap-global="false" />
  <defs
     id="defs11254">
    <linearGradient
       id="linearGradient4644-590">
      <stop
         id="stop4175"
         offset="0"
         style="stop-color:#ffffff;stop-opacity:0.71200001;" />
      <stop
         id="stop4177"
         offset="1"
         style="stop-color:#bbbbbb;stop-opacity:0;" />
    </linearGradient>
    <linearGradient
       id="linearGradient3237-580">
      <stop
         style="stop-color:#ededed;stop-opacity:1;"
         offset="0"
         id="stop4181" />
      <stop
         style="stop-color:#707070;stop-opacity:1;"
         offset="1"
         id="stop4183" />
    </linearGradient>
    <radialGradient
       inkscape:collect="always"
       xlink:href="#linearGradient3237-580"
       id="radialGradient3094"
       gradientUnits="userSpaceOnUse"
       gradientTransform="matrix(1.5565279,-3.8147216e-8,3.1952359e-8,1.303758,-4.7304868,-3.7752758)"
       cx="8.5"
       cy="12.428571"
       fx="8.5"
       fy="12.428571"
       r="5.5" />
    <linearGradient
       inkscape:collect="always"
       xlink:href="#linearGradient4644-590"
       id="linearGradient3096"
       gradientUnits="userSpaceOnUse"
       gradientTransform="matrix(0.5,0,0,0.5,0,18.75)"
       x1="8"
       y1="-17.991131"
       x2="8"
       y2="-13" />
    <radialGradient
       inkscape:collect="always"
       xlink:href="#linearGradient3237-580"
       id="radialGradient3098"
       gradientUnits="userSpaceOnUse"
       gradientTransform="matrix(1.5565279,-3.8147216e-8,3.1952359e-8,1.303758,-4.7304868,-3.7752758)"
       cx="8.5"
       cy="12.428571"
       fx="8.5"
       fy="12.428571"
       r="5.5" />
    <linearGradient
       inkscape:collect="always"
       xlink:href="#linearGradient4644-590"
       id="linearGradient3100"
       gradientUnits="userSpaceOnUse"
       gradientTransform="matrix(0.5,0,0,0.5,0,26.25)"
       x1="8"
       y1="-17.991131"
       x2="8"
       y2="-13" />
    <radialGradient
       inkscape:collect="always"
       xlink:href="#linearGradient3237-580"
       id="radialGradient3102"
       gradientUnits="userSpaceOnUse"
       gradientTransform="matrix(1.5565279,-3.8147216e-8,3.1952359e-8,1.303758,-4.7304868,-3.7752758)"
       cx="8.5"
       cy="12.428571"
       fx="8.5"
       fy="12.428571"
       r="5.5" />
    <linearGradient
       inkscape:collect="always"
       xlink:href="#linearGradient4644-590"
       id="linearGradient3104"
       gradientUnits="userSpaceOnUse"
       gradientTransform="matrix(0.5,0,0,0.5,0,33.75)"
       x1="8"
       y1="-17.991131"
       x2="8"
       y2="-13" />
    <radialGradient
       inkscape:collect="always"
       xlink:href="#linearGradient3237-580"
       id="radialGradient3106"
       gradientUnits="userSpaceOnUse"
       gradientTransform="matrix(1.5565279,-3.8147216e-8,3.1952359e-8,1.303758,-4.7304868,-3.7752758)"
       cx="8.5"
       cy="12.428571"
       fx="8.5"
       fy="12.428571"
       r="5.5" />
    <linearGradient
       inkscape:collect="always"
       xlink:href="#linearGradient4644-590"
       id="linearGradient3108"
       gradientUnits="userSpaceOnUse"
       gradientTransform="matrix(0.5,0,0,0.5,0,41.25)"
       x1="8"
       y1="-17.991131"
       x2="8"
       y2="-13" />
  </defs>
  <g
     id="g3084"
     transform="translate(-0.49999995,-2.4999999e-8)">
    <path
       sodipodi:type="arc"
       style="fill:url(#radialGradient3094);fill-opacity:1;fill-rule:nonzero;stroke:none;stroke-width:1;marker:none;visibility:visible;display:inline;overflow:visible;enable-background:accumulate"
       id="path4092"
       sodipodi:cx="8.5"
       sodipodi:cy="8.5"
       sodipodi:rx="5.5"
       sodipodi:ry="5.5"
       d="M 14,8.5 C 14,11.537566 11.537566,14 8.5,14 5.4624339,14 3,11.537566 3,8.5 3,5.4624339 5.4624339,3 8.5,3 11.537566,3 14,5.4624339 14,8.5 z"
       transform="matrix(0.63636365,0,0,0.63636365,-1.409091,7.340909)" />
    <path
       id="path4094"
       d="M 4,9.25 C 2.5031165,9.25 1.234271,10.193088 0.734375,11.515625 1.458585,11.965119 2.6483485,12.25 4,12.25 5.3516515,12.25 6.541415,11.965119 7.265625,11.515625 6.765729,10.193088 5.4968835,9.25 4,9.25 z"
       style="fill:url(#linearGradient3096);fill-opacity:1;fill-rule:nonzero;stroke:none;stroke-width:4.91335344;marker:none;visibility:visible;display:inline;overflow:visible;enable-background:accumulate"
       inkscape:connector-curvature="0" />
    <path
       transform="matrix(0.63636365,0,0,0.63636365,-1.409091,14.840909)"
       d="M 14,8.5 C 14,11.537566 11.537566,14 8.5,14 5.4624339,14 3,11.537566 3,8.5 3,5.4624339 5.4624339,3 8.5,3 11.537566,3 14,5.4624339 14,8.5 z"
       sodipodi:ry="5.5"
       sodipodi:rx="5.5"
       sodipodi:cy="8.5"
       sodipodi:cx="8.5"
       id="path3034"
       style="fill:url(#radialGradient3098);fill-opacity:1;fill-rule:nonzero;stroke:none;stroke-width:1;marker:none;visibility:visible;display:inline;overflow:visible;enable-background:accumulate"
       sodipodi:type="arc" />
    <path
       inkscape:connector-curvature="0"
       style="fill:url(#linearGradient3100);fill-opacity:1;fill-rule:nonzero;stroke:none;stroke-width:4.91335344;marker:none;visibility:visible;display:inline;overflow:visible;enable-background:accumulate"
       d="m 4,16.75 c -1.4968835,0 -2.765729,0.943088 -3.265625,2.265625 C 1.458585,19.465119 2.6483485,19.75 4,19.75 5.3516515,19.75 6.541415,19.465119 7.265625,19.015625 6.765729,17.693088 5.4968835,16.75 4,16.75 z"
       id="path3036" />
    <path
       sodipodi:type="arc"
       style="fill:url(#radialGradient3102);fill-opacity:1;fill-rule:nonzero;stroke:none;stroke-width:1;marker:none;visibility:visible;display:inline;overflow:visible;enable-background:accumulate"
       id="path3048"
       sodipodi:cx="8.5"
       sodipodi:cy="8.5"
       sodipodi:rx="5.5"
       sodipodi:ry="5.5"
       d="M 14,8.5 C 14,11.537566 11.537566,14 8.5,14 5.4624339,14 3,11.537566 3,8.5 3,5.4624339 5.4624339,3 8.5,3 11.537566,3 14,5.4624339 14,8.5 z"
       transform="matrix(0.63636365,0,0,0.63636365,-1.409091,22.340909)" />
    <path
       id="path3050"
       d="m 4,24.25 c -1.4968835,0 -2.765729,0.943088 -3.265625,2.265625 C 1.458585,26.965119 2.6483485,27.25 4,27.25 5.3516515,27.25 6.541415,26.965119 7.265625,26.515625 6.765729,25.193088 5.4968835,24.25 4,24.25 z"
       style="fill:url(#linearGradient3104);fill-opacity:1;fill-rule:nonzero;stroke:none;stroke-width:4.91335344;marker:none;visibility:visible;display:inline;overflow:visible;enable-background:accumulate"
       inkscape:connector-curvature="0" />
    <path
       transform="matrix(0.63636365,0,0,0.63636365,-1.409091,29.840909)"
       d="M 14,8.5 C 14,11.537566 11.537566,14 8.5,14 5.4624339,14 3,11.537566 3,8.5 3,5.4624339 5.4624339,3 8.5,3 11.537566,3 14,5.4624339 14,8.5 z"
       sodipodi:ry="5.5"
       sodipodi:rx="5.5"
       sodipodi:cy="8.5"
       sodipodi:cx="8.5"
       id="path3062"
       style="fill:url(#radialGradient3106);fill-opacity:1;fill-rule:nonzero;stroke:none;stroke-width:1;marker:none;visibility:visible;display:inline;overflow:visible;enable-background:accumulate"
       sodipodi:type="arc" />
    <path
       inkscape:connector-curvature="0"
       style="fill:url(#linearGradient3108);fill-opacity:1;fill-rule:nonzero;stroke:none;stroke-width:4.91335344;marker:none;visibility:visible;display:inline;overflow:visible;enable-background:accumulate"
       d="m 4,31.75 c -1.4968835,0 -2.765729,0.943088 -3.265625,2.265625 C 1.458585,34.465119 2.6483485,34.75 4,34.75 5.3516515,34.75 6.541415,34.465119 7.265625,34.015625 6.765729,32.693088 5.4968835,31.75 4,31.75 z"
       id="path3064" />
  </g>
</svg>
