<?xml version="1.0" encoding="UTF-8" standalone="no"?>
<!-- Created with Inkscape (http://www.inkscape.org/) -->

<svg
   xmlns:dc="http://purl.org/dc/elements/1.1/"
   xmlns:cc="http://creativecommons.org/ns#"
   xmlns:rdf="http://www.w3.org/1999/02/22-rdf-syntax-ns#"
   xmlns:svg="http://www.w3.org/2000/svg"
   xmlns="http://www.w3.org/2000/svg"
   xmlns:xlink="http://www.w3.org/1999/xlink"
   xmlns:sodipodi="http://sodipodi.sourceforge.net/DTD/sodipodi-0.dtd"
   xmlns:inkscape="http://www.inkscape.org/namespaces/inkscape"
   width="70"
   height="48"
   id="svg11252"
   version="1.1"
   inkscape:version="0.48.3.1 r9886"
   sodipodi:docname="three.svg">
  <metadata
     id="metadata19">
    <rdf:RDF>
      <cc:Work
         rdf:about="">
        <dc:format>image/svg+xml</dc:format>
        <dc:type
           rdf:resource="http://purl.org/dc/dcmitype/StillImage" />
        <dc:title />
      </cc:Work>
    </rdf:RDF>
  </metadata>
  <sodipodi:namedview
     pagecolor="#ffffff"
     bordercolor="#666666"
     borderopacity="0.21960784"
     objecttolerance="10"
     gridtolerance="10"
     guidetolerance="10"
     inkscape:pageopacity="0"
     inkscape:pageshadow="2"
     inkscape:window-width="1063"
     inkscape:window-height="796"
     id="namedview17"
     showgrid="true"
     fit-margin-top="0"
     fit-margin-left="0"
     fit-margin-right="0"
     fit-margin-bottom="0"
     showborder="true"
     inkscape:showpageshadow="false"
     inkscape:zoom="8.0000002"
     inkscape:cx="-14.659906"
     inkscape:cy="27.618163"
     inkscape:window-x="297"
     inkscape:window-y="253"
     inkscape:window-maximized="0"
     inkscape:current-layer="svg11252"
     inkscape:snap-global="false" />
  <defs
     id="defs11254">
    <linearGradient
       id="linearGradient4644-590">
      <stop
         id="stop4175"
         offset="0"
         style="stop-color:#ffffff;stop-opacity:0.71200001;" />
      <stop
         id="stop4177"
         offset="1"
         style="stop-color:#bbbbbb;stop-opacity:0;" />
    </linearGradient>
    <linearGradient
       id="linearGradient3237-580">
      <stop
         style="stop-color:#ededed;stop-opacity:1;"
         offset="0"
         id="stop4181" />
      <stop
         style="stop-color:#707070;stop-opacity:1;"
         offset="1"
         id="stop4183" />
    </linearGradient>
    <radialGradient
       inkscape:collect="always"
       xlink:href="#linearGradient3237-580"
       id="radialGradient3034"
       gradientUnits="userSpaceOnUse"
       gradientTransform="matrix(1.5565279,-3.8147216e-8,3.1952359e-8,1.303758,-4.7304868,-3.7752758)"
       cx="8.5"
       cy="12.428571"
       fx="8.5"
       fy="12.428571"
       r="5.5" />
    <linearGradient
       inkscape:collect="always"
       xlink:href="#linearGradient4644-590"
       id="linearGradient3036"
       gradientUnits="userSpaceOnUse"
       gradientTransform="matrix(0.5,0,0,0.5,0,22.5)"
       x1="8"
       y1="-17.991131"
       x2="8"
       y2="-13" />
    <radialGradient
       inkscape:collect="always"
       xlink:href="#linearGradient3237-580"
       id="radialGradient3038"
       gradientUnits="userSpaceOnUse"
       gradientTransform="matrix(1.5565279,-3.8147216e-8,3.1952359e-8,1.303758,-4.7304868,-3.7752758)"
       cx="8.5"
       cy="12.428571"
       fx="8.5"
       fy="12.428571"
       r="5.5" />
    <linearGradient
       inkscape:collect="always"
       xlink:href="#linearGradient4644-590"
       id="linearGradient3040"
       gradientUnits="userSpaceOnUse"
       gradientTransform="matrix(0.5,0,0,0.5,0,30)"
       x1="8"
       y1="-17.991131"
       x2="8"
       y2="-13" />
    <radialGradient
       inkscape:collect="always"
       xlink:href="#linearGradient3237-580"
       id="radialGradient3042"
       gradientUnits="userSpaceOnUse"
       gradientTransform="matrix(1.5565279,-3.8147216e-8,3.1952359e-8,1.303758,-4.7304868,-3.7752758)"
       cx="8.5"
       cy="12.428571"
       fx="8.5"
       fy="12.428571"
       r="5.5" />
    <linearGradient
       inkscape:collect="always"
       xlink:href="#linearGradient4644-590"
       id="linearGradient3044"
       gradientUnits="userSpaceOnUse"
       gradientTransform="matrix(0.5,0,0,0.5,0,37.5)"
       x1="8"
       y1="-17.991131"
       x2="8"
       y2="-13" />
  </defs>
  <g
     id="g3026"
     transform="translate(-0.49999995,-2.4999999e-8)">
    <path
       sodipodi:type="arc"
       style="fill:url(#radialGradient3034);fill-opacity:1;fill-rule:nonzero;stroke:none;stroke-width:1;marker:none;visibility:visible;display:inline;overflow:visible;enable-background:accumulate"
       id="path4092"
       sodipodi:cx="8.5"
       sodipodi:cy="8.5"
       sodipodi:rx="5.5"
       sodipodi:ry="5.5"
       d="M 14,8.5 C 14,11.537566 11.537566,14 8.5,14 5.4624339,14 3,11.537566 3,8.5 3,5.4624339 5.4624339,3 8.5,3 11.537566,3 14,5.4624339 14,8.5 z"
       transform="matrix(0.63636365,0,0,0.63636365,-1.409091,11.090909)" />
    <path
       id="path4094"
       d="M 4,13 C 2.5031165,13 1.234271,13.943088 0.734375,15.265625 1.458585,15.715119 2.6483485,16 4,16 5.3516515,16 6.541415,15.715119 7.265625,15.265625 6.765729,13.943088 5.4968835,13 4,13 z"
       style="fill:url(#linearGradient3036);fill-opacity:1;fill-rule:nonzero;stroke:none;stroke-width:4.91335344;marker:none;visibility:visible;display:inline;overflow:visible;enable-background:accumulate"
       inkscape:connector-curvature="0" />
    <path
       transform="matrix(0.63636365,0,0,0.63636365,-1.409091,18.590909)"
       d="M 14,8.5 C 14,11.537566 11.537566,14 8.5,14 5.4624339,14 3,11.537566 3,8.5 3,5.4624339 5.4624339,3 8.5,3 11.537566,3 14,5.4624339 14,8.5 z"
       sodipodi:ry="5.5"
       sodipodi:rx="5.5"
       sodipodi:cy="8.5"
       sodipodi:cx="8.5"
       id="path3030"
       style="fill:url(#radialGradient3038);fill-opacity:1;fill-rule:nonzero;stroke:none;stroke-width:1;marker:none;visibility:visible;display:inline;overflow:visible;enable-background:accumulate"
       sodipodi:type="arc" />
    <path
       inkscape:connector-curvature="0"
       style="fill:url(#linearGradient3040);fill-opacity:1;fill-rule:nonzero;stroke:none;stroke-width:4.91335344;marker:none;visibility:visible;display:inline;overflow:visible;enable-background:accumulate"
       d="M 4,20.5 C 2.5031165,20.5 1.234271,21.443088 0.734375,22.765625 1.458585,23.215119 2.6483485,23.5 4,23.5 5.3516515,23.5 6.541415,23.215119 7.265625,22.765625 6.765729,21.443088 5.4968835,20.5 4,20.5 z"
       id="path3032" />
    <path
       sodipodi:type="arc"
       style="fill:url(#radialGradient3042);fill-opacity:1;fill-rule:nonzero;stroke:none;stroke-width:1;marker:none;visibility:visible;display:inline;overflow:visible;enable-background:accumulate"
       id="path3044"
       sodipodi:cx="8.5"
       sodipodi:cy="8.5"
       sodipodi:rx="5.5"
       sodipodi:ry="5.5"
       d="M 14,8.5 C 14,11.537566 11.537566,14 8.5,14 5.4624339,14 3,11.537566 3,8.5 3,5.4624339 5.4624339,3 8.5,3 11.537566,3 14,5.4624339 14,8.5 z"
       transform="matrix(0.63636365,0,0,0.63636365,-1.409091,26.090909)" />
    <path
       id="path3046"
       d="M 4,28 C 2.5031165,28 1.234271,28.943088 0.734375,30.265625 1.458585,30.715119 2.6483485,31 4,31 5.3516515,31 6.541415,30.715119 7.265625,30.265625 6.765729,28.943088 5.4968835,28 4,28 z"
       style="fill:url(#linearGradient3044);fill-opacity:1;fill-rule:nonzero;stroke:none;stroke-width:4.91335344;marker:none;visibility:visible;display:inline;overflow:visible;enable-background:accumulate"
       inkscape:connector-curvature="0" />
  </g>
</svg>
