#define desk_width 7
#define desk_height 7
static unsigned char desk_bits[] = {
   0x00, 0x48, 0x78, 0x7f, 0x78, 0x48, 0x00 };
