#define max_toggled_width 8
#define max_toggled_height 8
static unsigned char max_toggled_bits[] = {
   0xf8, 0xf8, 0x88, 0x9f, 0xff, 0x11, 0x11, 0x1f };
